<?xml version="1.0" standalone="no"?>
<!DOCTYPE svg PUBLIC "-//W3C//DTD SVG 20010904//EN"
 "http://www.w3.org/TR/2001/REC-SVG-20010904/DTD/svg10.dtd">
<svg version="1.0" xmlns="http://www.w3.org/2000/svg"
 width="377.000000pt" height="312.000000pt" viewBox="0 0 377.000000 312.000000"
 preserveAspectRatio="xMidYMid meet">

<g transform="translate(0.000000,312.000000) scale(0.100000,-0.100000)"
fill="#000000" stroke="none">
<path d="M1671 2993 c-19 -3 -50 -15 -70 -29 -20 -13 -41 -24 -47 -24 -7 0
-20 -12 -29 -27 -15 -22 -15 -25 -2 -20 23 9 41 -17 28 -40 -9 -16 -10 -16
-11 -1 0 9 -5 20 -12 24 -7 4 -8 3 -4 -4 10 -16 -17 -15 -32 0 -7 7 -12 8 -12
4 0 -5 -8 -2 -17 5 -17 13 -17 13 0 -13 11 -17 13 -29 6 -33 -5 -4 -7 -16 -3
-28 6 -19 5 -20 -8 -9 -9 7 -21 26 -28 42 -7 17 -16 30 -20 30 -17 0 -75 -48
-74 -62 1 -8 -6 -15 -15 -14 -8 0 -16 -5 -16 -12 0 -7 -6 -17 -14 -21 -9 -6
-10 -11 -2 -15 6 -4 9 -12 5 -17 -3 -5 -10 -7 -15 -3 -20 12 -77 -175 -80
-263 0 -15 -3 -22 -6 -15 -7 18 -20 15 -26 -8 -3 -11 -1 -18 4 -14 16 9 10
-30 -9 -59 -10 -15 -20 -25 -23 -23 -2 2 -4 -5 -4 -17 -1 -12 -4 -35 -9 -52
-7 -28 -6 -28 7 -11 13 18 14 18 19 -8 3 -14 1 -29 -4 -32 -4 -3 -6 -10 -3
-15 4 -5 1 -9 -4 -9 -6 0 -11 10 -11 23 -1 20 -2 20 -11 4 -17 -29 -3 -55 29
-50 20 3 17 0 -11 -11 -21 -8 -41 -17 -44 -20 -7 -7 36 -95 59 -118 17 -17 18
-17 18 2 0 26 27 26 35 -1 5 -14 10 -18 17 -11 7 7 3 20 -12 40 -47 63 -5 103
125 120 56 7 74 6 92 -5 48 -32 38 -75 -19 -87 -17 -3 -29 -8 -26 -11 2 -3 19
-1 36 4 45 13 49 -4 4 -22 -41 -17 -71 -46 -64 -65 5 -17 22 -15 22 2 0 32 49
25 50 -6 0 -5 17 -9 38 -9 21 -1 29 -3 17 -6 -11 -3 -24 -11 -28 -19 -4 -8
-15 -14 -22 -14 -8 0 -15 -4 -15 -8 0 -5 26 -5 58 0 69 11 149 61 158 98 3 14
14 45 24 70 15 37 23 45 47 47 21 2 34 -5 53 -29 14 -18 21 -29 15 -26 -6 3
-10 -4 -10 -17 0 -13 4 -21 8 -18 5 3 5 -3 0 -13 -5 -11 -8 -25 -7 -31 1 -7 2
-24 3 -37 0 -14 8 -31 16 -40 18 -18 19 -40 3 -66 -11 -17 -10 -22 2 -30 13
-9 13 -10 0 -10 -9 0 -22 -16 -29 -37 -8 -21 -25 -48 -38 -61 -22 -20 -28 -21
-58 -11 -18 7 -40 9 -49 6 -16 -6 -16 -9 1 -37 16 -28 53 -42 53 -20 0 6 12
10 26 10 17 0 28 -6 31 -20 3 -11 14 -20 24 -20 10 0 21 -5 24 -10 4 -6 11 -8
16 -4 5 3 16 -11 25 -32 l16 -37 -44 -40 c-46 -42 -106 -67 -117 -48 -5 7 -18
8 -37 2 -16 -4 -39 -7 -52 -6 -13 1 -25 -2 -27 -6 -3 -4 -13 -5 -24 -2 -15 4
-20 -3 -25 -32 -10 -50 5 -64 41 -39 67 45 102 54 209 54 81 0 104 -3 104 -14
0 -25 -40 -64 -78 -76 -20 -7 -56 -21 -79 -32 -38 -17 -41 -21 -30 -39 9 -14
23 -19 54 -19 51 0 100 -27 106 -57 4 -20 0 -23 -24 -23 -20 0 -41 -12 -69
-39 -38 -37 -43 -38 -102 -37 -39 1 -63 5 -66 14 -2 6 -10 12 -18 12 -8 0 -14
3 -14 8 0 15 -56 72 -72 72 -34 0 -26 -19 28 -66 31 -27 62 -55 70 -62 7 -6
15 -12 19 -12 3 0 27 -16 52 -35 26 -20 57 -38 70 -41 13 -4 23 -10 23 -15 0
-5 7 -9 15 -9 8 0 15 -9 15 -19 0 -11 5 -23 11 -26 6 -4 8 -13 5 -20 -3 -8 0
-16 7 -19 8 -3 7 -5 -2 -5 -8 -1 1 -16 23 -37 35 -34 36 -37 19 -50 -16 -12
-16 -13 7 -7 l25 5 -22 -16 c-22 -17 -160 -56 -195 -56 -10 0 -18 4 -18 9 0 5
-7 11 -15 15 -13 5 -14 2 -4 -15 6 -13 7 -19 1 -15 -6 3 -13 0 -15 -6 -4 -10
-8 -9 -16 2 -15 21 -25 5 -11 -19 9 -18 14 -19 31 -10 18 9 30 8 92 -7 4 -1
22 -2 41 -3 32 -1 34 -3 34 -36 0 -19 -4 -35 -9 -35 -5 0 -9 -7 -9 -16 0 -10
6 -14 14 -11 17 7 28 -16 20 -38 -4 -8 -1 -15 6 -15 7 0 9 -8 5 -22 -4 -16 -3
-19 3 -9 8 11 10 11 15 0 3 -8 7 -3 12 13 9 34 -2 70 -14 49 -6 -10 -10 -9
-15 4 -9 24 -7 37 4 30 6 -3 10 -1 10 4 0 6 -6 11 -13 11 -9 0 -13 12 -13 35
1 35 10 46 19 23 4 -10 8 -9 16 2 10 13 11 13 11 0 0 -8 3 -26 7 -39 4 -17 3
-22 -5 -17 -7 4 -12 1 -12 -8 0 -10 7 -13 26 -10 16 3 23 1 19 -6 -3 -5 -12
-10 -19 -10 -9 0 -11 -13 -6 -50 4 -28 3 -50 -2 -50 -4 0 -8 -7 -8 -16 0 -8 4
-12 10 -9 5 3 10 2 10 -3 0 -5 11 -7 25 -4 14 2 22 8 20 12 -3 5 5 16 17 25
23 17 23 17 -9 11 -18 -3 -35 -1 -38 4 -6 10 7 14 39 10 10 -1 23 4 27 12 7
11 9 11 9 0 0 -8 7 -11 19 -7 13 4 20 0 24 -15 3 -12 1 -18 -5 -14 -6 4 -8 -4
-4 -23 5 -21 1 -35 -14 -53 -18 -21 -24 -34 -22 -51 1 -4 -8 -5 -18 -2 -31 8
-50 -15 -50 -58 0 -30 -4 -39 -17 -40 -12 -1 -10 -4 7 -9 33 -10 112 -12 127
-2 6 4 13 30 14 57 2 31 10 60 23 78 22 30 36 35 36 13 0 -8 5 -18 11 -22 9
-5 10 3 5 30 -5 24 -3 36 5 36 15 0 1 -142 -15 -152 -8 -6 -7 -8 2 -8 6 0 12
-7 12 -16 0 -13 8 -15 43 -9 85 12 142 28 150 41 4 8 13 14 18 14 6 0 7 -4 4
-10 -11 -17 7 -11 21 8 8 10 13 12 14 5 0 -15 103 20 108 36 2 6 10 7 19 4 12
-5 14 -3 8 6 -4 8 -2 17 6 22 8 5 9 9 3 9 -17 0 -17 107 -1 130 13 19 15 16
23 -42 4 -35 8 -68 7 -75 -2 -35 77 -6 139 52 18 17 29 24 24 17 -4 -7 22 8
58 33 83 58 203 182 275 283 61 84 141 230 141 255 0 11 -17 19 -57 27 -32 6
-86 22 -121 35 -34 14 -75 25 -90 25 -16 0 -51 6 -78 14 -61 18 -189 36 -255
36 -34 0 -65 8 -97 25 -26 14 -55 25 -64 25 -10 0 -18 6 -18 13 0 7 -9 18 -20
24 -37 24 -36 76 3 161 20 42 45 122 56 177 12 55 35 143 51 195 31 97 51 205
43 228 -3 7 -16 15 -30 18 -22 6 -24 10 -18 38 4 17 7 40 8 51 0 11 6 42 13
70 15 51 9 205 -7 205 -5 0 -6 7 -3 15 4 8 -3 33 -15 55 -12 22 -21 49 -21 59
0 31 -79 143 -154 217 -76 75 -240 174 -289 174 -14 0 -27 4 -29 9 -4 11 -110
17 -126 7 -10 -6 -63 -1 -66 6 0 2 -6 13 -13 25 -10 17 -10 23 0 26 14 6 -12
6 -62 0z m-94 -135 c-3 -8 -6 -5 -6 6 -1 11 2 17 5 13 3 -3 4 -12 1 -19z m20
-10 c-3 -8 -6 -5 -6 6 -1 11 2 17 5 13 3 -3 4 -12 1 -19z m30 -20 c-3 -8 -6
-5 -6 6 -1 11 2 17 5 13 3 -3 4 -12 1 -19z m1 -144 c36 1 52 -3 52 -11 0 -7 7
-10 15 -7 8 4 21 1 29 -5 7 -6 27 -8 43 -5 18 3 55 -1 87 -10 71 -21 88 -48
63 -102 -17 -34 -17 -36 8 -78 30 -52 31 -70 4 -97 -11 -11 -19 -27 -17 -36 3
-17 49 -26 59 -12 3 5 14 3 24 -5 17 -12 14 -14 -33 -25 -28 -7 -56 -9 -63 -5
-8 5 -9 3 -4 -6 6 -10 3 -12 -13 -8 -12 4 -22 2 -22 -4 0 -6 -7 -8 -15 -4 -8
3 -15 1 -15 -5 0 -6 -4 -8 -9 -5 -5 4 -11 1 -13 -4 -2 -6 -12 -12 -21 -14 -10
-1 -22 -7 -26 -14 -3 -6 -20 -18 -36 -26 l-30 -16 28 0 c15 0 27 5 27 10 0 6
5 10 10 10 6 0 10 -12 9 -27 0 -16 -3 -22 -6 -15 -6 14 -61 16 -97 2 -23 -8
-26 -7 -26 10 0 11 4 20 10 20 5 0 6 8 3 17 -4 10 -8 12 -11 5 -3 -9 -8 -8
-18 3 -17 17 -156 12 -301 -11 -51 -7 -95 -14 -97 -14 -2 0 0 17 4 38 5 20 11
57 13 82 6 58 112 260 145 276 13 6 32 21 43 33 11 11 34 27 52 34 18 8 38 21
46 30 9 12 18 14 30 8 9 -5 40 -8 69 -7z m-382 -100 c-4 -9 -9 -15 -11 -12 -3
3 -3 13 1 22 4 9 9 15 11 12 3 -3 3 -13 -1 -22z m551 -496 c-3 -8 -6 -5 -6 6
-1 11 2 17 5 13 3 -3 4 -12 1 -19z m-622 -18 c3 -5 1 -10 -4 -10 -6 0 -11 5
-11 10 0 6 2 10 4 10 3 0 8 -4 11 -10z m452 -27 c-3 -10 -5 -4 -5 12 0 17 2
24 5 18 2 -7 2 -21 0 -30z m-7 -27 c0 -3 -4 -8 -10 -11 -5 -3 -10 -1 -10 4 0
6 5 11 10 11 6 0 10 -2 10 -4z m533 -107 c32 -14 34 -28 6 -52 -18 -16 -19
-20 -7 -35 46 -54 45 -124 -1 -220 -8 -17 -79 -43 -83 -31 -2 5 -18 10 -37 11
-18 1 -36 8 -38 15 -3 7 -11 13 -19 13 -22 0 -34 35 -34 97 -1 32 -5 77 -9
100 -8 43 -8 43 25 49 39 7 36 18 -9 39 -31 15 -31 15 -4 11 15 -2 27 1 27 6
0 6 6 8 13 5 6 -2 21 -1 32 3 25 10 101 4 138 -11z m-147 -1416 c-10 -10 -19
5 -10 18 6 11 8 11 12 0 2 -7 1 -15 -2 -18z m294 -179 c0 -2 -7 -4 -15 -4 -8
0 -15 4 -15 10 0 5 7 7 15 4 8 -4 15 -8 15 -10z"/>
<path d="M1750 2985 c0 -5 5 -17 10 -25 5 -8 10 -10 10 -5 0 6 -5 17 -10 25
-5 8 -10 11 -10 5z"/>
<path d="M1438 2864 c6 -12 8 -24 5 -28 -3 -3 -1 -6 5 -6 21 0 21 17 0 36 -21
19 -21 19 -10 -2z"/>
<path d="M1210 2085 c0 -8 2 -15 4 -15 2 0 6 7 10 15 3 8 1 15 -4 15 -6 0 -10
-7 -10 -15z"/>
<path d="M1331 2014 c0 -11 3 -14 6 -6 3 7 2 16 -1 19 -3 4 -6 -2 -5 -13z"/>
<path d="M3132 1930 c0 -14 2 -19 5 -12 2 6 2 18 0 25 -3 6 -5 1 -5 -13z"/>
<path d="M3135 1867 c4 -21 2 -27 -6 -21 -8 5 -9 3 -4 -5 14 -24 30 6 16 31
-11 22 -11 22 -6 -5z"/>
<path d="M3163 1853 c2 -12 6 -26 10 -29 11 -11 8 19 -3 36 -8 12 -9 10 -7 -7z"/>
<path d="M3135 1811 c-3 -5 -1 -12 5 -16 5 -3 10 1 10 9 0 18 -6 21 -15 7z"/>
<path d="M3176 1775 c6 -15 2 -16 -24 -10 -28 6 -32 4 -32 -14 0 -18 -6 -21
-49 -21 -51 0 -75 -15 -50 -31 8 -5 32 -9 54 -9 45 0 74 -13 56 -24 -6 -4 -11
-3 -11 3 0 5 -36 11 -80 13 l-80 3 0 -26 c0 -15 -7 -29 -15 -33 -8 -3 -15 -10
-15 -16 0 -5 7 -10 15 -10 8 0 15 -4 15 -10 0 -14 -58 -12 -62 2 -3 8 -12 4
-26 -10 -17 -17 -18 -22 -7 -22 8 0 15 5 15 10 0 6 5 10 10 10 6 0 10 -16 10
-35 0 -19 -4 -35 -10 -35 -5 0 -10 10 -10 22 0 19 -2 20 -17 6 -10 -8 -26 -18
-36 -22 -11 -3 -21 -15 -24 -26 -6 -22 -24 -22 -31 -2 -2 7 3 12 12 12 9 0 16
5 16 10 0 6 -7 10 -15 10 -8 0 -15 -4 -15 -10 0 -5 -14 -10 -31 -10 -21 0 -40
-10 -61 -30 -16 -16 -34 -30 -40 -30 -5 0 -23 -13 -38 -30 -15 -16 -32 -30
-37 -30 -20 0 -79 -35 -96 -57 -10 -12 -21 -22 -25 -22 -26 4 -43 -3 -39 -15
4 -9 0 -12 -13 -9 -22 6 -32 -8 -18 -27 8 -12 9 -12 4 3 -8 24 -2 22 36 -14
43 -40 68 -49 131 -49 89 0 322 -41 402 -70 62 -23 82 -29 120 -35 17 -2 42
-7 56 -10 24 -6 27 -3 47 62 34 109 44 154 38 169 -3 8 -1 25 4 38 13 36 24
203 12 210 -5 3 -8 42 -7 86 1 47 -1 76 -6 68 -6 -9 -9 -3 -10 17 -2 53 -4 58
-17 62 -8 3 -10 -1 -6 -12z m-481 -325 c-3 -5 2 -10 11 -10 29 0 3 -19 -36
-26 l-34 -7 25 26 c24 25 46 37 34 17z"/>
<path d="M1730 1585 c0 -8 5 -15 10 -15 6 0 10 7 10 15 0 8 -4 15 -10 15 -5 0
-10 -7 -10 -15z"/>
<path d="M1398 990 c-37 -36 -40 -44 -35 -77 8 -47 27 -68 27 -30 0 41 37 105
73 127 l32 20 -29 0 c-20 0 -40 -12 -68 -40z"/>
<path d="M1310 935 c-7 -9 -11 -17 -9 -20 3 -2 10 5 17 15 14 24 10 26 -8 5z"/>
<path d="M1681 584 c0 -11 3 -14 6 -6 3 7 2 16 -1 19 -3 4 -6 -2 -5 -13z"/>
<path d="M1700 580 c0 -5 7 -10 15 -10 8 0 15 5 15 10 0 6 -7 10 -15 10 -8 0
-15 -4 -15 -10z"/>
<path d="M1690 510 c0 -5 5 -10 10 -10 6 0 10 5 10 10 0 6 -4 10 -10 10 -5 0
-10 -4 -10 -10z"/>
<path d="M1541 484 c0 -11 3 -14 6 -6 3 7 2 16 -1 19 -3 4 -6 -2 -5 -13z"/>
<path d="M1462 474 c-12 -8 -22 -12 -22 -9 0 3 -10 -3 -22 -15 -12 -11 -28
-20 -35 -20 -7 0 -13 -7 -13 -15 0 -8 -5 -15 -11 -15 -6 0 -8 9 -3 23 3 12 5
20 3 17 -2 -3 -12 -15 -23 -27 -18 -21 -17 -22 14 -38 58 -30 75 -28 111 10
19 19 40 35 47 35 9 0 12 6 8 16 -3 8 -2 12 4 9 17 -11 11 11 -8 28 -23 21
-22 21 -50 1z"/>
<path d="M1620 444 c0 -8 5 -12 10 -9 6 3 10 10 10 16 0 5 -4 9 -10 9 -5 0
-10 -7 -10 -16z"/>
<path d="M1770 444 c0 -8 5 -12 10 -9 6 4 8 11 5 16 -9 14 -15 11 -15 -7z"/>
<path d="M1751 428 c0 -16 -5 -28 -10 -28 -11 0 -3 -39 12 -57 7 -9 5 -13 -7
-13 -9 0 -16 -7 -16 -15 0 -8 7 -15 16 -15 8 0 13 4 10 9 -4 5 -1 11 6 13 8 3
9 20 1 69 -6 35 -11 52 -12 37z"/>
<path d="M1810 415 c0 -8 5 -15 10 -15 6 0 10 7 10 15 0 8 -4 15 -10 15 -5 0
-10 -7 -10 -15z"/>
<path d="M1885 420 c-3 -5 -1 -10 4 -10 6 0 11 5 11 10 0 6 -2 10 -4 10 -3 0
-8 -4 -11 -10z"/>
<path d="M1640 410 c0 -5 5 -10 10 -10 6 0 10 5 10 10 0 6 -4 10 -10 10 -5 0
-10 -4 -10 -10z"/>
<path d="M1871 386 c-7 -8 -8 -17 -3 -20 6 -3 15 1 21 8 7 8 8 17 3 20 -6 3
-15 -1 -21 -8z"/>
<path d="M1613 379 c-6 -6 -21 -16 -34 -23 -12 -6 -21 -15 -20 -20 2 -5 -3
-13 -11 -17 -10 -7 -10 -9 2 -9 13 0 13 -2 1 -9 -11 -7 -4 -11 25 -16 21 -4
48 -9 59 -12 13 -3 16 -1 8 4 -7 5 -10 21 -7 38 9 56 9 68 -1 72 -6 2 -16 -2
-22 -8z"/>
<path d="M1738 272 c9 -11 21 -17 25 -14 14 7 1 25 -21 29 -21 3 -21 2 -4 -15z"/>
<path d="M1708 263 c6 -2 18 -2 25 0 6 3 1 5 -13 5 -14 0 -19 -2 -12 -5z"/>
</g>
</svg>
